<svg id="visual" viewBox="0 0 1000 40" width="1000" height="40" xmlns="http://www.w3.org/2000/svg" xmlns:xlink="http://www.w3.org/1999/xlink" version="1.1"><path d="M0 11L43 11L43 26L87 26L87 29L130 29L130 13L174 13L174 23L217 23L217 19L261 19L261 18L304 18L304 8L348 8L348 5L391 5L391 17L435 17L435 6L478 6L478 17L522 17L522 12L565 12L565 25L609 25L609 11L652 11L652 26L696 26L696 4L739 4L739 11L783 11L783 13L826 13L826 11L870 11L870 7L913 7L913 9L957 9L957 13L1000 13L1000 16L1000 0L1000 0L957 0L957 0L913 0L913 0L870 0L870 0L826 0L826 0L783 0L783 0L739 0L739 0L696 0L696 0L652 0L652 0L609 0L609 0L565 0L565 0L522 0L522 0L478 0L478 0L435 0L435 0L391 0L391 0L348 0L348 0L304 0L304 0L261 0L261 0L217 0L217 0L174 0L174 0L130 0L130 0L87 0L87 0L43 0L43 0L0 0Z" fill="#ffa096"></path><path d="M0 37L43 37L43 31L87 31L87 37L130 37L130 31L174 31L174 35L217 35L217 34L261 34L261 38L304 38L304 31L348 31L348 27L391 27L391 32L435 32L435 26L478 26L478 36L522 36L522 35L565 35L565 34L609 34L609 23L652 23L652 33L696 33L696 26L739 26L739 28L783 28L783 27L826 27L826 36L870 36L870 37L913 37L913 24L957 24L957 30L1000 30L1000 29L1000 14L1000 11L957 11L957 7L913 7L913 5L870 5L870 9L826 9L826 11L783 11L783 9L739 9L739 2L696 2L696 24L652 24L652 9L609 9L609 23L565 23L565 10L522 10L522 15L478 15L478 4L435 4L435 15L391 15L391 3L348 3L348 6L304 6L304 16L261 16L261 17L217 17L217 21L174 21L174 11L130 11L130 27L87 27L87 24L43 24L43 9L0 9Z" fill="#fa7268"></path><path d="M0 41L43 41L43 41L87 41L87 41L130 41L130 41L174 41L174 41L217 41L217 41L261 41L261 41L304 41L304 41L348 41L348 41L391 41L391 41L435 41L435 41L478 41L478 41L522 41L522 41L565 41L565 41L609 41L609 41L652 41L652 41L696 41L696 41L739 41L739 41L783 41L783 41L826 41L826 41L870 41L870 41L913 41L913 41L957 41L957 41L1000 41L1000 41L1000 27L1000 28L957 28L957 22L913 22L913 35L870 35L870 34L826 34L826 25L783 25L783 26L739 26L739 24L696 24L696 31L652 31L652 21L609 21L609 32L565 32L565 33L522 33L522 34L478 34L478 24L435 24L435 30L391 30L391 25L348 25L348 29L304 29L304 36L261 36L261 32L217 32L217 33L174 33L174 29L130 29L130 35L87 35L87 29L43 29L43 35L0 35Z" fill="#c04e45"></path></svg>